<svg xmlns="http://www.w3.org/2000/svg" width="15.419" height="14" viewBox="0 0 15.419 14">
  <g id="그룹_139" data-name="그룹 139" transform="translate(-285.741 -467.5)">
    <path id="handshake_FILL0_wght400_GRAD0_opsz48" d="M8.377,14.884a.478.478,0,0,0,.169-.037.435.435,0,0,0,.154-.1L13.64,9.8a1.26,1.26,0,0,0,.286-.432,1.33,1.33,0,0,0,.1-.491,1.387,1.387,0,0,0-.1-.5,1.244,1.244,0,0,0-.286-.44L11,5.3a1.244,1.244,0,0,0-.44-.286,1.387,1.387,0,0,0-.5-.1,1.33,1.33,0,0,0-.491.1,1.26,1.26,0,0,0-.432.286l-.264.264,1.187,1.2a2.31,2.31,0,0,1,.337.476,1.229,1.229,0,0,1,.147.594,1.338,1.338,0,0,1-.432.982,1.373,1.373,0,0,1-.99.425,1.472,1.472,0,0,1-.608-.11,1.523,1.523,0,0,1-.447-.315L7,7.744,4.346,10.4a.425.425,0,0,0-.1.154.489.489,0,0,0-.029.169.426.426,0,0,0,.44.44.347.347,0,0,0,.169-.044.6.6,0,0,0,.139-.1L6.984,8.99l.616.616L5.592,11.615a.411.411,0,0,0-.1.161.553.553,0,0,0-.029.176.451.451,0,0,0,.44.44.4.4,0,0,0,.169-.037.469.469,0,0,0,.139-.1l2.023-2.023.616.616L6.838,12.861a.435.435,0,0,0-.1.154.51.51,0,0,0-.037.183.451.451,0,0,0,.44.44.43.43,0,0,0,.161-.029.447.447,0,0,0,.147-.1l2.023-2.023.616.616L8.069,14.121a.411.411,0,0,0-.1.161.514.514,0,0,0-.029.161.406.406,0,0,0,.44.44Zm0,.88a1.228,1.228,0,0,1-.865-.359,1.459,1.459,0,0,1-.454-.887,1.442,1.442,0,0,1-1.246-1.246,1.392,1.392,0,0,1-.828-.418,1.491,1.491,0,0,1-.4-.828,1.473,1.473,0,0,1-.894-.44,1.225,1.225,0,0,1-.352-.88,1.387,1.387,0,0,1,.1-.5,1.244,1.244,0,0,1,.286-.44L7,6.484,8.612,8.1a.918.918,0,0,0,.257.183.631.631,0,0,0,.271.066.584.584,0,0,0,.528-.528.476.476,0,0,0-.051-.2.824.824,0,0,0-.169-.227l-2.1-2.1a1.244,1.244,0,0,0-.44-.286,1.387,1.387,0,0,0-.5-.1,1.33,1.33,0,0,0-.491.1,1.26,1.26,0,0,0-.432.286L3.261,7.524a1.169,1.169,0,0,0-.286.432,1.789,1.789,0,0,0-.1.506,1.191,1.191,0,0,0,.11.564,2.358,2.358,0,0,0,.3.491l-.63.63a2.571,2.571,0,0,1-.476-.777A2.45,2.45,0,0,1,2,8.448a2.164,2.164,0,0,1,.169-.843,2.192,2.192,0,0,1,.476-.711L4.859,4.68A2.042,2.042,0,0,1,5.592,4.2a2.363,2.363,0,0,1,.836-.154,2.3,2.3,0,0,1,.828.154,2.058,2.058,0,0,1,.726.476l.264.264.264-.264A2.042,2.042,0,0,1,9.242,4.2a2.363,2.363,0,0,1,.836-.154,2.3,2.3,0,0,1,.828.154,2.057,2.057,0,0,1,.726.476L14.256,7.3a2.13,2.13,0,0,1,.484.733,2.268,2.268,0,0,1,.161.836,2.211,2.211,0,0,1-.161.828,2.148,2.148,0,0,1-.484.726l-4.94,4.94a1.356,1.356,0,0,1-.432.293A1.282,1.282,0,0,1,8.377,15.763ZM6.94,7.759Z" transform="translate(285 464.45)" fill="#ffc400" stroke="#ffc400" stroke-width="1"/>
    <path id="handshake_FILL0_wght400_GRAD0_opsz48-2" data-name="handshake_FILL0_wght400_GRAD0_opsz48" d="M9.622,17a.572.572,0,0,0,.2-.044.52.52,0,0,0,.184-.114l5.9-5.922a1.506,1.506,0,0,0,.342-.517,1.589,1.589,0,0,0,.114-.587,1.658,1.658,0,0,0-.114-.6,1.487,1.487,0,0,0-.342-.526L12.758,5.539a1.487,1.487,0,0,0-.526-.342,1.658,1.658,0,0,0-.6-.114,1.589,1.589,0,0,0-.587.114,1.506,1.506,0,0,0-.517.342l-.315.315,1.419,1.437a2.76,2.76,0,0,1,.4.569,1.468,1.468,0,0,1,.175.71A1.6,1.6,0,0,1,11.7,9.745a1.641,1.641,0,0,1-1.183.508,1.76,1.76,0,0,1-.727-.131,1.82,1.82,0,0,1-.534-.377L7.975,8.466,4.8,11.637a.508.508,0,0,0-.123.184.585.585,0,0,0-.035.2.509.509,0,0,0,.526.526.415.415,0,0,0,.2-.053.723.723,0,0,0,.166-.123L7.957,9.955l.736.736-2.4,2.4a.492.492,0,0,0-.123.193.661.661,0,0,0-.035.21.539.539,0,0,0,.526.526.482.482,0,0,0,.2-.044.561.561,0,0,0,.166-.114l2.418-2.418.736.736-2.4,2.4a.52.52,0,0,0-.114.184.609.609,0,0,0-.044.219.539.539,0,0,0,.526.526.514.514,0,0,0,.193-.035.534.534,0,0,0,.175-.123l2.418-2.418.736.736L9.254,16.088a.492.492,0,0,0-.123.193.614.614,0,0,0-.035.193A.485.485,0,0,0,9.622,17Zm0,1.051a1.467,1.467,0,0,1-1.034-.429,1.744,1.744,0,0,1-.543-1.06,1.723,1.723,0,0,1-1.489-1.489,1.664,1.664,0,0,1-.99-.5,1.782,1.782,0,0,1-.482-.99,1.761,1.761,0,0,1-1.069-.526A1.464,1.464,0,0,1,3.594,12a1.658,1.658,0,0,1,.114-.6,1.487,1.487,0,0,1,.342-.526L7.975,6.959,9.9,8.886a1.1,1.1,0,0,0,.307.219.755.755,0,0,0,.324.079.7.7,0,0,0,.631-.631.569.569,0,0,0-.061-.237.985.985,0,0,0-.2-.272L8.4,5.539A1.487,1.487,0,0,0,7.87,5.2a1.658,1.658,0,0,0-.6-.114,1.589,1.589,0,0,0-.587.114,1.506,1.506,0,0,0-.517.342L3.507,8.2a1.4,1.4,0,0,0-.342.517,2.138,2.138,0,0,0-.114.6A1.423,1.423,0,0,0,3.183,10a2.818,2.818,0,0,0,.359.587l-.753.753a3.073,3.073,0,0,1-.569-.929A2.929,2.929,0,0,1,2,9.307,2.586,2.586,0,0,1,2.2,8.3a2.62,2.62,0,0,1,.569-.85L5.417,4.8a2.441,2.441,0,0,1,.876-.569,2.824,2.824,0,0,1,1-.184,2.753,2.753,0,0,1,.99.184,2.459,2.459,0,0,1,.867.569l.315.315L9.78,4.8a2.441,2.441,0,0,1,.876-.569,2.824,2.824,0,0,1,1-.184,2.753,2.753,0,0,1,.99.184,2.459,2.459,0,0,1,.867.569L16.648,7.94a2.546,2.546,0,0,1,.578.876,2.71,2.71,0,0,1,.193,1,2.643,2.643,0,0,1-.193.99,2.567,2.567,0,0,1-.578.867l-5.9,5.9a1.621,1.621,0,0,1-.517.35A1.532,1.532,0,0,1,9.622,18.05ZM7.9,8.483Z" transform="translate(283.741 463.45)"/>
  </g>
</svg>
